HIERARCHY
ROOT Hips
{
  OFFSET -35.2597 29.1586 114.425
  CHANNELS 6 Xposition Yposition Zposition Zrotation Xrotation Yrotation
  JOINT LeftUpLeg
  {
    OFFSET 8.64259 1.95398 -2.38835
    CHANNELS 3 Zrotation Xrotation Yrotation
    JOINT LeftLeg
    {
      OFFSET 43.7702 0 0
      CHANNELS 3 Zrotation Xrotation Yrotation
      JOINT LeftFoot
      {
        OFFSET 40.6238 0 0
        CHANNELS 3 Zrotation Xrotation Yrotation
        JOINT LeftToeBase
        {
          OFFSET 12.7242 0 0
          CHANNELS 3 Zrotation Xrotation Yrotation
          End Site
          {
            OFFSET 0 0 0
          }
        }
      }
    }
  }
  JOINT RightUpLeg
  {
    OFFSET -8.2249 1.95398 -2.59336
    CHANNELS 3 Zrotation Xrotation Yrotation
    JOINT RightLeg
    {
      OFFSET 43.5653 0 0
      CHANNELS 3 Zrotation Xrotation Yrotation
      JOINT RightFoot
      {
        OFFSET 40.6238 0 0
        CHANNELS 3 Zrotation Xrotation Yrotation
        JOINT RightToeBase
        {
          OFFSET 12.7242 0 0
          CHANNELS 3 Zrotation Xrotation Yrotation
          End Site
          {
            OFFSET 0 0 0
          }
        }
      }
    }
  }
  JOINT Spine
  {
    OFFSET 0.165834 0.87714 6.61349
    CHANNELS 3 Zrotation Xrotation Yrotation
    JOINT Spine1
    {
      OFFSET 7.38963 1.71661e-005 0
      CHANNELS 3 Zrotation Xrotation Yrotation
      JOINT Spine2
      {
        OFFSET 11.9445 1.14441e-005 0
        CHANNELS 3 Zrotation Xrotation Yrotation
        JOINT Spine3
        {
          OFFSET 14.7254 4.19617e-005 0
          CHANNELS 3 Zrotation Xrotation Yrotation
          JOINT Spine4
          {
            OFFSET 10.9679 0 0
            CHANNELS 3 Zrotation Xrotation Yrotation
            JOINT RightShoulder
            {
              OFFSET 2.46616 -1.6653 3.69651
              CHANNELS 3 Zrotation Xrotation Yrotation
              JOINT RightArm
              {
                OFFSET 13.0012 0 0
                CHANNELS 3 Zrotation Xrotation Yrotation
                JOINT RightForeArm
                {
                  OFFSET 28.7848 1.62311e-005 0
                  CHANNELS 3 Zrotation Xrotation Yrotation
                  JOINT RightHand
                  {
                    OFFSET 26.5688 1.62095e-005 0
                    CHANNELS 3 Zrotation Xrotation Yrotation
                    End Site
                    {
                      OFFSET 0 0 0
                    }
                  }
                }
              }
            }
            JOINT LeftShoulder
            {
              OFFSET 2.38034 -1.29275 -3.7523
              CHANNELS 3 Zrotation Xrotation Yrotation
              JOINT LeftArm
              {
                OFFSET 16.3182 6.07031e-005 0
                CHANNELS 3 Zrotation Xrotation Yrotation
                JOINT LeftForeArm
                {
                  OFFSET 27.0901 0 0
                  CHANNELS 3 Zrotation Xrotation Yrotation
                  JOINT LeftHand
                  {
                    OFFSET 24.5451 1.51738e-005 0
                    CHANNELS 3 Zrotation Xrotation Yrotation
                    End Site
                    {
                      OFFSET 0 0 0
                    }
                  }
                }
              }
            }
            JOINT Neck
            {
              OFFSET 5.0226 -0.0266342 0
              CHANNELS 3 Zrotation Xrotation Yrotation
              JOINT Head
              {
                OFFSET 6.69364 2.86102e-005 0
                CHANNELS 3 Zrotation Xrotation Yrotation
                End Site
                {
                  OFFSET 0 0 0
                }
              }
            }
          }
        }
      }
    }
  }
}
MOTION
Frames:	6
Frame Time:	0.0416667
99.5323 26.9913 111.608 -24.1557 -13.7629 -99.6863 -125.753 56.5013 91.3629 -107.188 3.55631 1.9999 65.8012 0.989558 5.42428 0.394587 -18.5494 2.60832 138.304 13.0405 59.8853 -40.0622 -19.8176 13.3839 45.4221 7.8566 5.73384 32.0312 -2.29198 3.58068 -1.41706 8.92423 -87.4201 9.03591 -1.67505 5.22486 -2.64475 -1.4438 5.29327 -25.1227 -3.16643 4.48235 -5.11003 -3.16644 4.48237 92.9604 -17.2186 -105.568 27.5882 29.5311 54.4506 -64.0331 41.8986 -113.406 -80.7823 11.5568 -18.8358 -87.2797 -41.9302 81.3182 -29.8155 -32.3173 19.2983 58.218 -39.4229 -113.94 47.7372 -18.9372 -43.4723 34.8422 -1.27188 -4.06099 3.75393 0.405622 -3.77042 
98.8106 26.3127 111.164 -24.9728 -12.9828 -101.363 -128.81 53.747 94.9579 -105.825 6.68229 1.09809 65.3488 1.10291 5.55484 0.111927 -19.0442 2.92992 137.524 12.5856 58.2654 -40.4419 -9.12433 13.1367 47.1297 6.67947 4.7067 30.2605 -1.48149 3.078 -1.51587 8.76883 -87.72 9.35798 -1.99861 4.66591 -2.32007 -1.79156 4.74912 -24.8186 -3.30759 3.85135 -4.8059 -3.3076 3.85132 93.6547 -16.1856 -104.294 26.5749 22.5999 49.3743 -67.203 43.8549 -111.617 -76.1767 9.67438 -17.6135 -85.2007 -30.4845 82.6237 -39.2746 -40.9076 2.10891 59.8277 -37.9122 -112.094 36.1433 -12.9369 -39.8421 33.0932 1.08198 0.748619 5.06783 0.537867 -3.08023 
98.41 25.7919 110.586 -24.3118 -11.0594 -100.584 -126.767 54.3354 96.4695 -105.164 5.44601 0.590933 64.6037 0.89833 5.8122 -0.354062 -18.4225 1.89734 139.159 11.9949 59.5535 -40.7003 -8.41664 13.1331 48.7203 6.03441 4.042 28.5022 -0.977101 3.70863 -1.45396 8.44175 -88.3465 10.0104 -2.14585 3.4585 -1.66368 -1.99165 3.54946 -24.1889 -3.08571 2.65432 -4.17627 -3.08571 2.65431 93.8388 -15.8964 -103.952 25.7461 18.1052 37.4245 -68.311 40.1949 -109.598 -68.9282 10.6323 -20.7634 -82.465 -13.7712 85.055 -43.5089 -47.3826 -22.7117 59.0873 -26.6469 -107.201 20.867 -6.68319 -36.1192 30.2816 4.59175 4.8319 6.12999 2.24449 -2.58591 
98.4383 25.9007 109.88 -19.0771 -7.80042 -97.8181 -119.683 58.7987 92.9648 -105.003 6.3047 0.0316864 64.0887 0.971151 6.06058 0.980187 -18.4367 2.94042 142.553 15.0373 65.3353 -43.5798 -4.76425 13.3949 52.034 4.27342 2.43698 28.5503 -1.2879 4.70958 -1.13736 7.82799 -89.0676 11.2328 -1.82977 2.0377 -0.438607 -1.73833 2.11621 -22.9773 -2.35751 1.3936 -2.96466 -2.35752 1.39358 94.0113 -15.892 -103.511 25.1535 15.1083 29.3466 -72.967 38.809 -105.902 -64.3276 10.1796 -21.4391 -81.0918 -2.47412 85.4877 -41.1785 -51.604 -45.1348 56.0835 -11.2554 -97.8597 5.21014 -2.18551 -34.6272 30.1305 6.83894 7.99538 5.81705 3.15901 -2.49555 
98.7688 26.4547 109.225 -12.5978 -3.50336 -93.4154 -106.638 65.8787 84.1205 -105.344 3.46652 -0.189167 63.1831 0.38259 4.59295 0.227015 -18.8936 2.85221 146.459 17.8337 74.2296 -45.8122 2.13359 13.9955 60.1137 -0.834748 -0.139334 29.2108 -1.52047 4.66277 -0.637121 7.18805 -89.7852 12.501 -1.16343 0.563478 0.830459 -1.1375 0.614162 -21.7087 -1.27898 0.187737 -1.69607 -1.27899 0.18771 93.9199 -16.9596 -103.285 24.5167 13.284 26.1283 -78.5317 40.078 -102.431 -60.1729 9.76506 -22.1193 -80.2218 2.12471 87.3709 -34.4655 -51.6535 -53.0622 52.7479 0.426333 -90.9104 7.35929 -2.69302 -34.2512 30.7815 8.4528 9.69407 4.91587 3.95903 -2.97895 
98.4011 26.6189 109.435 -11.9243 -1.69981 -95.0471 -105.049 63.3218 84.1369 -104.212 2.79678 -1.29178 63.3568 0.672839 4.12818 -0.890311 -18.8262 1.91989 146.361 19.744 74.516 -47.7583 6.16544 13.9244 67.4808 -5.94322 -1.44895 29.3726 -1.39917 4.01598 -0.609625 7.16726 -89.8138 12.5422 -1.12226 0.50208 0.871653 -1.09908 0.550991 -21.6673 -1.22129 0.141536 -1.65462 -1.22129 0.141525 93.3254 -18.3112 -104.185 24.2434 12.9523 25.3262 -82.5774 42.3184 -100.05 -56.8537 9.88121 -23.5147 -79.8975 4.00293 88.0304 -35.1597 -51.7387 -51.4929 50.7498 -0.878633 -92.1287 4.32241 -1.66454 -30.9149 31.1123 8.97472 9.81119 5.03473 4.39569 -2.62097 
